<svg width="220" height="71" viewBox="0 0 220 71" fill="none" xmlns="http://www.w3.org/2000/svg">
<rect x="0.0410156" y="0.230469" width="219.042" height="69.9856" rx="10" fill="white"/>
<path d="M52.2674 36.42C52.2235 31.6661 56.2598 29.3533 56.4443 29.2456C54.1584 25.9962 50.6154 25.5522 49.3704 25.5168C46.3946 25.2115 43.5082 27.2529 41.9923 27.2529C40.4462 27.2529 38.112 25.5463 35.5961 25.5965C32.3587 25.6451 29.33 27.4727 27.669 30.3106C24.2409 36.097 26.7976 44.6004 30.0819 49.2776C31.7248 51.5683 33.6446 54.1259 36.1574 54.0359C38.6157 53.9371 39.534 52.5078 42.5006 52.5078C45.4401 52.5078 46.3024 54.0359 48.8651 53.9784C51.5034 53.9371 53.1645 51.6774 54.75 49.3661C56.6485 46.7406 57.411 44.1549 57.4413 44.0222C57.3792 44.0015 52.3173 42.1179 52.2674 36.42Z" fill="#484646"/>
<path d="M47.4264 22.44C48.7486 20.8278 49.6533 18.6345 49.4021 16.4087C47.4884 16.4913 45.0951 17.6993 43.717 19.2761C42.4976 20.6655 41.4084 22.9429 41.6898 25.0846C43.8395 25.241 46.0467 24.0271 47.4264 22.44Z" fill="#484646"/>
<path d="M82.2471 17.3236C82.2471 19.0597 81.7131 20.3666 80.6465 21.2442C79.6587 22.054 78.2548 22.4596 76.4363 22.4596C75.5347 22.4596 74.7632 22.4212 74.1172 22.3445V12.8588C74.9598 12.7261 75.8675 12.6582 76.8478 12.6582C78.58 12.6582 79.8856 13.0255 80.766 13.76C81.7524 14.5905 82.2471 15.7778 82.2471 17.3236ZM80.5754 17.3664C80.5754 16.241 80.2698 15.3781 79.6587 14.7763C79.0475 14.176 78.1549 13.8751 76.9794 13.8751C76.4802 13.8751 76.0551 13.9075 75.7026 13.9754V21.1867C75.8978 21.2162 76.2548 21.2294 76.7737 21.2294C77.987 21.2294 78.9234 20.9005 79.583 20.2427C80.2426 19.5848 80.5754 18.6261 80.5754 17.3664Z" fill="black"/>
<path d="M91.1117 18.8399C91.1117 19.9093 90.7985 20.7855 90.1722 21.4728C89.5156 22.1793 88.6458 22.5319 87.5595 22.5319C86.5127 22.5319 85.6791 22.1941 85.0573 21.5156C84.4371 20.8386 84.127 19.9845 84.127 18.955C84.127 17.8782 84.4462 16.9947 85.0876 16.3088C85.729 15.623 86.5913 15.2793 87.6775 15.2793C88.7244 15.2793 89.5655 15.6171 90.2024 16.2941C90.8076 16.9519 91.1117 17.8015 91.1117 18.8399ZM89.4672 18.8901C89.4672 18.2485 89.325 17.6983 89.0421 17.2396C88.7093 16.685 88.2358 16.4077 87.6201 16.4077C86.9832 16.4077 86.4991 16.685 86.1662 17.2396C85.8818 17.6983 85.7411 18.2573 85.7411 18.9181C85.7411 19.5597 85.8833 20.1099 86.1662 20.5686C86.5096 21.1232 86.9877 21.4005 87.6049 21.4005C88.2101 21.4005 88.6851 21.1188 89.027 20.5539C89.3205 20.0863 89.4672 19.5317 89.4672 18.8901Z" fill="black"/>
<path d="M102.995 15.4209L100.763 22.374H99.311L98.3866 19.3547C98.1521 18.601 97.9615 17.8517 97.8133 17.1083H97.7845C97.6468 17.8723 97.4562 18.6202 97.2112 19.3547L96.2293 22.374H94.7604L92.6621 15.4209H94.2914L95.0977 18.7264C95.2929 19.5081 95.4533 20.253 95.5819 20.958H95.6106C95.7286 20.3769 95.9237 19.6364 96.1991 18.7411L97.2112 15.4224H98.5031L99.4728 18.6703C99.7073 19.4624 99.8979 20.225 100.045 20.9595H100.089C100.196 20.2441 100.358 19.4816 100.573 18.6703L101.438 15.4224H102.995V15.4209Z" fill="black"/>
<path d="M111.214 22.3741H109.628V18.3916C109.628 17.1644 109.15 16.5508 108.191 16.5508C107.721 16.5508 107.341 16.7189 107.046 17.0567C106.754 17.3945 106.606 17.7927 106.606 18.2485V22.3726H105.02V17.4078C105.02 16.7971 105.001 16.1348 104.963 15.418H106.356L106.43 16.5051H106.474C106.659 16.1673 106.934 15.8885 107.296 15.6658C107.725 15.4062 108.206 15.2749 108.733 15.2749C109.398 15.2749 109.952 15.4844 110.392 15.9047C110.94 16.4195 111.214 17.188 111.214 18.2087V22.3741Z" fill="black"/>
<path d="M115.586 22.374H114.002V12.2305H115.586V22.374Z" fill="black"/>
<path d="M124.92 18.8399C124.92 19.9093 124.607 20.7855 123.981 21.4728C123.324 22.1793 122.453 22.5319 121.368 22.5319C120.32 22.5319 119.486 22.1941 118.866 21.5156C118.246 20.8386 117.936 19.9845 117.936 18.955C117.936 17.8782 118.255 16.9947 118.896 16.3088C119.538 15.623 120.4 15.2793 121.485 15.2793C122.533 15.2793 123.373 15.6171 124.011 16.2941C124.616 16.9519 124.92 17.8015 124.92 18.8399ZM123.274 18.8901C123.274 18.2485 123.132 17.6983 122.849 17.2396C122.518 16.685 122.043 16.4077 121.429 16.4077C120.79 16.4077 120.306 16.685 119.975 17.2396C119.69 17.6983 119.55 18.2573 119.55 18.9181C119.55 19.5597 119.692 20.1099 119.975 20.5686C120.318 21.1232 120.796 21.4005 121.414 21.4005C122.019 21.4005 122.492 21.1188 122.834 20.5539C123.129 20.0863 123.274 19.5317 123.274 18.8901Z" fill="black"/>
<path d="M132.593 22.374H131.169L131.051 21.5731H131.007C130.52 22.2118 129.826 22.5319 128.924 22.5319C128.251 22.5319 127.706 22.3209 127.297 21.902C126.924 21.5215 126.738 21.048 126.738 20.486C126.738 19.6364 127.101 18.9889 127.832 18.5405C128.561 18.0921 129.587 17.8723 130.908 17.8827V17.7529C130.908 16.8369 130.414 16.3796 129.427 16.3796C128.723 16.3796 128.103 16.5522 127.567 16.8944L127.245 15.8796C127.908 15.4799 128.726 15.2793 129.691 15.2793C131.555 15.2793 132.49 16.238 132.49 18.1555V20.7161C132.49 21.4109 132.525 21.964 132.593 22.374ZM130.947 19.9845V18.9122C129.198 18.8827 128.324 19.3503 128.324 20.3135C128.324 20.6763 128.424 20.9477 128.628 21.1291C128.832 21.3106 129.092 21.4005 129.402 21.4005C129.75 21.4005 130.076 21.2929 130.372 21.079C130.67 20.8636 130.853 20.5908 130.921 20.2559C130.938 20.1807 130.947 20.0893 130.947 19.9845Z" fill="black"/>
<path d="M141.603 22.374H140.196L140.122 21.2575H140.078C139.628 22.1071 138.863 22.5319 137.787 22.5319C136.928 22.5319 136.212 22.2029 135.645 21.5451C135.078 20.8872 134.795 20.0332 134.795 18.9845C134.795 17.8591 135.102 16.9475 135.719 16.2513C136.317 15.6023 137.049 15.2778 137.92 15.2778C138.878 15.2778 139.548 15.592 139.929 16.2218H139.96V12.2305H141.547V20.5008C141.547 21.1778 141.565 21.8017 141.603 22.374ZM139.96 19.4417V18.2824C139.96 18.0818 139.945 17.9195 139.916 17.7956C139.827 17.4239 139.634 17.1112 139.342 16.859C139.047 16.6068 138.692 16.4799 138.282 16.4799C137.69 16.4799 137.228 16.7086 136.887 17.1673C136.55 17.626 136.379 18.2116 136.379 18.927C136.379 19.6143 136.541 20.1719 136.866 20.6011C137.209 21.0583 137.672 21.287 138.252 21.287C138.772 21.287 139.188 21.0967 139.504 20.7147C139.81 20.3621 139.96 19.9373 139.96 19.4417Z" fill="black"/>
<path d="M155.162 18.8399C155.162 19.9093 154.849 20.7855 154.223 21.4728C153.566 22.1793 152.698 22.5319 151.61 22.5319C150.565 22.5319 149.731 22.1941 149.108 21.5156C148.488 20.8386 148.178 19.9845 148.178 18.955C148.178 17.8782 148.497 16.9947 149.138 16.3088C149.78 15.623 150.642 15.2793 151.73 15.2793C152.775 15.2793 153.618 15.6171 154.253 16.2941C154.858 16.9519 155.162 17.8015 155.162 18.8399ZM153.52 18.8901C153.52 18.2485 153.377 17.6983 153.094 17.2396C152.76 16.685 152.288 16.4077 151.671 16.4077C151.035 16.4077 150.551 16.685 150.217 17.2396C149.933 17.6983 149.792 18.2573 149.792 18.9181C149.792 19.5597 149.934 20.1099 150.217 20.5686C150.56 21.1232 151.038 21.4005 151.656 21.4005C152.261 21.4005 152.737 21.1188 153.079 20.5539C153.371 20.0863 153.52 19.5317 153.52 18.8901Z" fill="black"/>
<path d="M163.687 22.3741H162.103V18.3916C162.103 17.1644 161.625 16.5508 160.664 16.5508C160.194 16.5508 159.814 16.7189 159.521 17.0567C159.227 17.3945 159.08 17.7927 159.08 18.2485V22.3726H157.493V17.4078C157.493 16.7971 157.475 16.1348 157.438 15.418H158.829L158.903 16.5051H158.947C159.133 16.1673 159.409 15.8885 159.769 15.6658C160.2 15.4062 160.679 15.2749 161.207 15.2749C161.872 15.2749 162.425 15.4844 162.865 15.9047C163.415 16.4195 163.687 17.188 163.687 18.2087V22.3741Z" fill="black"/>
<path d="M174.357 16.579H172.611V19.9567C172.611 20.8152 172.921 21.2444 173.536 21.2444C173.82 21.2444 174.056 21.2208 174.242 21.1721L174.283 22.3448C173.97 22.4598 173.558 22.5173 173.051 22.5173C172.425 22.5173 171.938 22.3315 171.585 21.9598C171.231 21.5881 171.056 20.9627 171.056 20.0851V16.579H170.014V15.4211H171.056V14.1467L172.61 13.6895V15.4196H174.355V16.579H174.357Z" fill="black"/>
<path d="M182.75 22.374H181.163V18.421C181.163 17.1747 180.685 16.5507 179.728 16.5507C178.992 16.5507 178.49 16.9121 178.215 17.6349C178.168 17.7868 178.141 17.9726 178.141 18.1909V22.3726H176.557V12.2305H178.141V16.4209H178.171C178.67 15.6584 179.386 15.2778 180.313 15.2778C180.97 15.2778 181.513 15.4873 181.944 15.9076C182.481 16.4313 182.75 17.2101 182.75 18.2396V22.374Z" fill="black"/>
<path d="M191.409 18.5686C191.409 18.8459 191.387 19.079 191.35 19.2693H186.595C186.616 19.9566 186.843 20.4802 187.283 20.8431C187.686 21.1676 188.204 21.3298 188.84 21.3298C189.543 21.3298 190.185 21.2207 190.763 21.0009L191.011 22.0747C190.334 22.3609 189.539 22.5039 188.617 22.5039C187.513 22.5039 186.643 22.1868 186.014 21.5526C185.382 20.9183 185.068 20.0672 185.068 18.9993C185.068 17.9506 185.36 17.0774 185.949 16.3812C186.563 15.6378 187.394 15.2661 188.442 15.2661C189.468 15.2661 190.247 15.6378 190.773 16.3812C191.198 16.9712 191.409 17.7013 191.409 18.5686ZM189.896 18.1689C189.908 17.7102 189.803 17.3149 189.589 16.9815C189.313 16.5523 188.894 16.337 188.327 16.337C187.81 16.337 187.388 16.5464 187.065 16.9668C186.802 17.3016 186.646 17.7013 186.595 18.1689H189.896Z" fill="black"/>
<path d="M89.4379 52.4486H86.0023L84.1204 46.6829H77.5789L75.7862 52.4486H72.4414L78.9223 32.8193H82.9252L89.4379 52.4486ZM83.5531 44.2639L81.8511 39.1382C81.6711 38.6146 81.3338 37.3815 80.836 35.4404H80.7755C80.5773 36.2753 80.2581 37.5084 79.8194 39.1382L78.1478 44.2639H83.5531Z" fill="black"/>
<path d="M106.105 45.1975C106.105 47.6047 105.438 49.5074 104.104 50.9043C102.908 52.1477 101.424 52.7687 99.6528 52.7687C97.7406 52.7687 96.3669 52.099 95.5304 50.7597H95.4698V58.2158H92.2445V42.954C92.2445 41.4407 92.2037 39.8875 92.125 38.2945H94.9615L95.1416 40.538H95.2021C96.2777 38.8476 97.91 38.0039 100.101 38.0039C101.813 38.0039 103.243 38.6632 104.386 39.9834C105.533 41.305 106.105 43.0425 106.105 45.1975ZM102.819 45.3125C102.819 43.9349 102.501 42.7991 101.863 41.9053C101.166 40.9731 100.229 40.507 99.0552 40.507C98.2595 40.507 97.5364 40.7666 96.8904 41.2784C96.2429 41.7947 95.8193 42.4687 95.6211 43.3036C95.5213 43.693 95.4714 44.0116 95.4714 44.2623V46.6223C95.4714 47.6519 95.7951 48.5207 96.4426 49.2301C97.0901 49.9396 97.9312 50.2936 98.966 50.2936C100.181 50.2936 101.126 49.8364 101.803 48.9248C102.48 48.0118 102.819 46.8082 102.819 45.3125Z" fill="black"/>
<path d="M122.803 45.1975C122.803 47.6047 122.136 49.5074 120.8 50.9043C119.606 52.1477 118.122 52.7687 116.351 52.7687C114.438 52.7687 113.065 52.099 112.23 50.7597H112.169V58.2158H108.944V42.954C108.944 41.4407 108.903 39.8875 108.824 38.2945H111.661L111.841 40.538H111.901C112.975 38.8476 114.608 38.0039 116.8 38.0039C118.511 38.0039 119.94 38.6632 121.087 39.9834C122.229 41.305 122.803 43.0425 122.803 45.1975ZM119.517 45.3125C119.517 43.9349 119.198 42.7991 118.559 41.9053C117.862 40.9731 116.928 40.507 115.753 40.507C114.956 40.507 114.234 40.7666 113.587 41.2784C112.939 41.7947 112.517 42.4687 112.319 43.3036C112.22 43.693 112.169 44.0116 112.169 44.2623V46.6223C112.169 47.6519 112.493 48.5207 113.137 49.2301C113.785 49.9381 114.626 50.2936 115.664 50.2936C116.878 50.2936 117.824 49.8364 118.5 48.9248C119.178 48.0118 119.517 46.8082 119.517 45.3125Z" fill="black"/>
<path d="M141.47 46.944C141.47 48.6137 140.876 49.9721 139.682 51.0209C138.371 52.1669 136.545 52.7392 134.198 52.7392C132.032 52.7392 130.295 52.3321 128.98 51.5165L129.728 48.8954C131.144 49.7302 132.697 50.1491 134.39 50.1491C135.605 50.1491 136.551 49.8807 137.23 49.3467C137.906 48.8128 138.243 48.0959 138.243 47.2021C138.243 46.4056 137.965 45.7345 137.407 45.1902C136.852 44.6459 135.924 44.14 134.629 43.6724C131.104 42.3906 129.344 40.513 129.344 38.0438C129.344 36.4302 129.961 35.1071 131.197 34.0775C132.428 33.0465 134.071 32.5317 136.126 32.5317C137.958 32.5317 139.479 32.843 140.694 33.4639L139.888 36.0275C138.753 35.4257 137.47 35.1248 136.035 35.1248C134.9 35.1248 134.014 35.3977 133.378 35.9405C132.841 36.4257 132.572 37.0172 132.572 37.7178C132.572 38.4937 132.879 39.1353 133.496 39.6398C134.033 40.1059 135.009 40.6103 136.425 41.1546C138.157 41.8346 139.43 42.6296 140.248 43.5411C141.063 44.4497 141.47 45.587 141.47 46.944Z" fill="black"/>
<path d="M152.134 40.6543H148.579V47.5263C148.579 49.2742 149.205 50.1474 150.461 50.1474C151.037 50.1474 151.515 50.0987 151.893 50.0014L151.983 52.3894C151.347 52.621 150.511 52.7375 149.474 52.7375C148.201 52.7375 147.205 52.3584 146.487 51.6018C145.771 50.8436 145.411 49.5722 145.411 47.7859V40.6514H143.293V38.2914H145.411V35.6998L148.579 34.7676V38.2914H152.134V40.6543Z" fill="black"/>
<path d="M168.174 45.255C168.174 47.4306 167.536 49.2168 166.262 50.6137C164.926 52.0518 163.153 52.7686 160.943 52.7686C158.813 52.7686 157.117 52.0798 155.852 50.7022C154.587 49.3245 153.955 47.5855 153.955 45.4895C153.955 43.2962 154.606 41.4996 155.911 40.1028C157.214 38.7045 158.972 38.0054 161.182 38.0054C163.312 38.0054 165.026 38.6942 166.319 40.0733C167.557 41.4111 168.174 43.1384 168.174 45.255ZM164.828 45.3568C164.828 44.0514 164.542 42.9319 163.962 41.9982C163.286 40.8683 162.319 40.3049 161.067 40.3049C159.77 40.3049 158.786 40.8698 158.109 41.9982C157.53 42.9333 157.244 44.0706 157.244 45.4158C157.244 46.7211 157.53 47.8407 158.109 48.7729C158.807 49.9027 159.781 50.4662 161.038 50.4662C162.27 50.4662 163.236 49.8909 163.934 48.7434C164.528 47.792 164.828 46.6607 164.828 45.3568Z" fill="black"/>
<path d="M178.657 41.0601C178.338 41.0026 177.998 40.9731 177.641 40.9731C176.506 40.9731 175.629 41.3905 175.012 42.2268C174.475 42.9643 174.205 43.8965 174.205 45.022V52.4486H170.981L171.012 42.7519C171.012 41.1206 170.971 39.6353 170.891 38.296H173.7L173.818 41.0041H173.907C174.248 40.0733 174.785 39.324 175.52 38.7621C176.238 38.2561 177.015 38.0039 177.851 38.0039C178.149 38.0039 178.418 38.0246 178.657 38.0614V41.0601Z" fill="black"/>
<path d="M193.083 44.7021C193.083 45.2655 193.045 45.7405 192.965 46.1284H183.289C183.327 47.5267 183.794 48.5961 184.693 49.3336C185.508 49.9929 186.563 50.3233 187.858 50.3233C189.29 50.3233 190.597 50.1006 191.773 49.6536L192.278 51.8366C190.905 52.4207 189.283 52.7113 187.411 52.7113C185.16 52.7113 183.393 52.0653 182.107 50.7746C180.825 49.484 180.182 47.7509 180.182 45.5767C180.182 43.4424 180.779 41.665 181.976 40.2476C183.228 38.7342 184.921 37.9775 187.051 37.9775C189.144 37.9775 190.727 38.7342 191.803 40.2476C192.655 41.4497 193.083 42.9365 193.083 44.7021ZM190.007 43.8864C190.029 42.9542 189.818 42.1488 189.381 41.4689C188.823 40.5942 187.965 40.1576 186.811 40.1576C185.756 40.1576 184.899 40.5839 184.244 41.4394C183.707 42.1193 183.387 42.935 183.289 43.8849H190.007V43.8864Z" fill="black"/>
</svg>
