<svg width="112" height="62" viewBox="0 0 112 62" fill="none" xmlns="http://www.w3.org/2000/svg">
<g filter="url(#filter0_dd_3586_6659)">
<rect x="8" y="4" width="100" height="50" rx="10" fill="white"/>
<rect x="28" y="10" width="60" height="38" rx="3" fill="#282828"/>
<path d="M34 33.6617H56.8088" stroke="#8B8B8B"/>
<rect x="34.15" y="39.3412" width="9.37647" height="3.15588" fill="#4A4A4A" stroke="#D9D9D9" stroke-width="0.3"/>
<rect x="46.5912" y="39.3412" width="9.37647" height="3.15588" fill="#4A4A4A" stroke="#D9D9D9" stroke-width="0.3"/>
<rect x="59.0323" y="39.3412" width="9.37647" height="3.15588" fill="#4A4A4A" stroke="#D9D9D9" stroke-width="0.3"/>
<rect x="71.4735" y="39.3412" width="9.37647" height="3.15588" fill="#4A4A4A" stroke="#D9D9D9" stroke-width="0.3"/>
<rect x="34.1" y="15.1" width="12.2412" height="8.09412" fill="#484646" stroke="#D9D9D9" stroke-width="0.2"/>
<path d="M40.2206 14.9999V23.2941" stroke="#8B8B8B"/>
<path d="M46.4412 19.147L34 19.147" stroke="#8B8B8B"/>
<path d="M34 17.0734H38.1471L40.2206 19.147" stroke="#8B8B8B"/>
<path d="M46.4412 21.2205H42.2941L40.2206 19.147" stroke="#8B8B8B"/>
<path d="M46.4412 17.0734H42.2941L40.2206 19.147" stroke="#8B8B8B"/>
<path d="M34 21.2205H38.1471L40.2206 19.147" stroke="#8B8B8B"/>
</g>
<defs>
<filter id="filter0_dd_3586_6659" x="0" y="0" width="112" height="62" filterUnits="userSpaceOnUse" color-interpolation-filters="sRGB">
<feFlood flood-opacity="0" result="BackgroundImageFix"/>
<feColorMatrix in="SourceAlpha" type="matrix" values="0 0 0 0 0 0 0 0 0 0 0 0 0 0 0 0 0 0 127 0" result="hardAlpha"/>
<feOffset dy="4"/>
<feGaussianBlur stdDeviation="2"/>
<feComposite in2="hardAlpha" operator="out"/>
<feColorMatrix type="matrix" values="0 0 0 0 0 0 0 0 0 0 0 0 0 0 0 0 0 0 0.25 0"/>
<feBlend mode="normal" in2="BackgroundImageFix" result="effect1_dropShadow_3586_6659"/>
<feColorMatrix in="SourceAlpha" type="matrix" values="0 0 0 0 0 0 0 0 0 0 0 0 0 0 0 0 0 0 127 0" result="hardAlpha"/>
<feOffset dx="-4"/>
<feGaussianBlur stdDeviation="2"/>
<feComposite in2="hardAlpha" operator="out"/>
<feColorMatrix type="matrix" values="0 0 0 0 0 0 0 0 0 0 0 0 0 0 0 0 0 0 0.25 0"/>
<feBlend mode="normal" in2="effect1_dropShadow_3586_6659" result="effect2_dropShadow_3586_6659"/>
<feBlend mode="normal" in="SourceGraphic" in2="effect2_dropShadow_3586_6659" result="shape"/>
</filter>
</defs>
</svg>
