<svg width="45" height="35" viewBox="0 0 45 35" fill="none" xmlns="http://www.w3.org/2000/svg">
<path fill-rule="evenodd" clip-rule="evenodd" d="M0 0H45V35H0V0Z" fill="url(#paint0_linear_3974_7934)"/>
<path fill-rule="evenodd" clip-rule="evenodd" d="M0 0H45V35H0V0Z" fill="url(#paint1_linear_3974_7934)"/>
<path fill-rule="evenodd" clip-rule="evenodd" d="M10.7148 21H27.8577V18.685C27.8577 18.0305 28.2709 17.725 28.8288 18.0287L30.0006 18.6667V21H33.2048C33.8021 21 34.2863 21.4994 34.2863 22.1776V23.3334C34.2863 24.622 33.3377 25.6667 32.1457 25.6667H28.9192C28.333 25.6667 27.8577 25.1255 27.8577 24.5V23.3334H13.9365C13.3407 23.3334 12.5229 22.9688 12.1082 22.5173L10.7148 21Z" fill="url(#paint2_linear_3974_7934)"/>
<path fill-rule="evenodd" clip-rule="evenodd" d="M10.7148 14.5888C10.7148 14.2636 10.8823 13.8177 11.1017 13.5788L11.3995 13.2545C11.6131 13.0219 11.6189 12.651 11.3995 12.4121L11.1017 12.0878C10.888 11.8552 10.7148 11.4169 10.7148 11.0778V9.92211C10.7148 9.59693 10.9442 9.33331 11.2556 9.33331H12.317C12.6156 9.33331 12.8577 9.58302 12.8577 9.92211V11.0778C12.8577 11.403 12.9566 11.4513 13.1062 11.1255L13.6806 9.87449C13.8179 9.57561 14.1813 9.33331 14.4599 9.33331H16.6126C16.9058 9.33331 17.1434 9.6039 17.1434 9.91665C17.1434 10.2388 16.9141 10.5 16.6027 10.5H15.5413C15.2427 10.5 15.0006 10.7706 15.0006 11.0833C15.0006 11.4055 15.2299 11.6666 15.5413 11.6666H16.6027C16.9013 11.6666 17.1434 11.9175 17.1434 12.2389V15.7611C17.1434 16.0771 16.9141 16.3333 16.6027 16.3333H15.5413C15.2427 16.3333 15.0006 16.0836 15.0006 15.7445V14.5888C15.0006 14.2636 15.2491 14 15.5363 14C15.8321 14 16.072 13.7294 16.072 13.4166C16.072 13.0945 15.8427 12.8333 15.5313 12.8333H14.4699C14.1712 12.8333 13.9291 13.108 13.9291 13.4113V15.7554C13.9291 16.0746 13.6806 16.3333 13.3934 16.3333C13.0975 16.3333 12.8577 16.0836 12.8577 15.7445V14.5888C12.8577 14.2636 12.6092 14 12.322 14C12.0261 14 11.7863 14.2497 11.7863 14.5888V15.7445C11.7863 16.0697 11.5378 16.3333 11.2506 16.3333C10.9547 16.3333 10.7148 16.0836 10.7148 15.7445V14.5888Z" fill="url(#paint3_linear_3974_7934)"/>
<path fill-rule="evenodd" clip-rule="evenodd" d="M27.8574 14.5888C27.8574 14.2636 28.0248 13.8177 28.2442 13.5788L28.542 13.2545C28.7557 13.0219 28.7614 12.6511 28.542 12.4121L28.2442 12.0879C28.0306 11.8553 27.8574 11.417 27.8574 11.0779V9.92214C27.8574 9.59696 28.0867 9.33334 28.3982 9.33334H29.4595C29.7582 9.33334 30.0003 9.58305 30.0003 9.92214V11.0779C30.0003 11.4031 30.0992 11.4513 30.2488 11.1255L30.8232 9.87452C30.9605 9.57564 31.3239 9.33334 31.6025 9.33334H33.7552C34.0484 9.33334 34.286 9.60393 34.286 9.91668C34.286 10.2388 34.0567 10.5 33.7453 10.5H32.6839C32.3852 10.5 32.1431 10.7706 32.1431 11.0833C32.1431 11.4055 32.3725 11.6667 32.6839 11.6667H33.7453C34.0439 11.6667 34.286 11.9176 34.286 12.2389V15.7611C34.286 16.0771 34.0567 16.3333 33.7453 16.3333H32.6839C32.3852 16.3333 32.1431 16.0836 32.1431 15.7445V14.5888C32.1431 14.2636 32.3916 14 32.6789 14C32.9747 14 33.2146 13.7294 33.2146 13.4167C33.2146 13.0945 32.9852 12.8333 32.6738 12.8333H31.6124C31.3138 12.8333 31.0717 13.108 31.0717 13.4113V15.7554C31.0717 16.0746 30.8232 16.3333 30.536 16.3333C30.2401 16.3333 30.0003 16.0836 30.0003 15.7445V14.5888C30.0003 14.2636 29.7518 14 29.4646 14C29.1687 14 28.9289 14.2497 28.9289 14.5888V15.7445C28.9289 16.0697 28.6804 16.3333 28.3931 16.3333C28.0973 16.3333 27.8574 16.0836 27.8574 15.7445V14.5888Z" fill="url(#paint4_linear_3974_7934)"/>
<path fill-rule="evenodd" clip-rule="evenodd" d="M25.7157 11.0779C25.7157 11.4031 25.5483 11.849 25.3289 12.0879L25.0311 12.4121C24.8174 12.6448 24.8117 13.0156 25.0311 13.2545L25.3289 13.5788C25.5425 13.8114 25.7157 14.2497 25.7157 14.5888V15.7445C25.7157 16.0697 25.4864 16.3333 25.1749 16.3333H24.1136C23.8149 16.3333 23.5728 16.0836 23.5728 15.7445V14.5888C23.5728 14.2636 23.4739 14.2153 23.3243 14.5412L22.7499 15.7922C22.6127 16.091 22.2492 16.3333 21.9706 16.3333H19.8179C19.5247 16.3333 19.2871 16.0628 19.2871 15.75C19.2871 15.4278 19.5164 15.1667 19.8278 15.1667H20.8892C21.1879 15.1667 21.43 14.8961 21.43 14.5833C21.43 14.2612 21.2006 14 20.8892 14H19.8278C19.5292 14 19.2871 13.7491 19.2871 13.4278V9.90557C19.2871 9.58954 19.5164 9.33334 19.8278 9.33334H20.8892C21.1879 9.33334 21.43 9.58305 21.43 9.92214V11.0779C21.43 11.4031 21.1815 11.6667 20.8943 11.6667C20.5984 11.6667 20.3585 11.9373 20.3585 12.25C20.3585 12.5722 20.5879 12.8333 20.8993 12.8333H21.9607C22.2593 12.8333 22.5014 12.5587 22.5014 12.2554V9.9113C22.5014 9.5921 22.7499 9.33334 23.0371 9.33334C23.333 9.33334 23.5728 9.58305 23.5728 9.92214V11.0779C23.5728 11.4031 23.8213 11.6667 24.1085 11.6667C24.4044 11.6667 24.6443 11.417 24.6443 11.0779V9.92214C24.6443 9.59696 24.8928 9.33334 25.18 9.33334C25.4758 9.33334 25.7157 9.58305 25.7157 9.92214V11.0779Z" fill="url(#paint5_linear_3974_7934)"/>
<defs>
<linearGradient id="paint0_linear_3974_7934" x1="472.5" y1="0" x2="472.5" y2="525" gradientUnits="userSpaceOnUse">
<stop stop-color="white"/>
<stop offset="1" stop-color="#F0F0F0"/>
</linearGradient>
<linearGradient id="paint1_linear_3974_7934" x1="472.5" y1="0" x2="472.5" y2="525" gradientUnits="userSpaceOnUse">
<stop stop-color="#128C4B"/>
<stop offset="1" stop-color="#0B6C38"/>
</linearGradient>
<linearGradient id="paint2_linear_3974_7934" x1="258.215" y1="17.9108" x2="258.215" y2="134.25" gradientUnits="userSpaceOnUse">
<stop stop-color="white"/>
<stop offset="1" stop-color="#F0F0F0"/>
</linearGradient>
<linearGradient id="paint3_linear_3974_7934" x1="78.2148" y1="9.33331" x2="78.2148" y2="114.333" gradientUnits="userSpaceOnUse">
<stop stop-color="white"/>
<stop offset="1" stop-color="#F0F0F0"/>
</linearGradient>
<linearGradient id="paint4_linear_3974_7934" x1="95.3574" y1="9.33334" x2="95.3574" y2="114.333" gradientUnits="userSpaceOnUse">
<stop stop-color="white"/>
<stop offset="1" stop-color="#F0F0F0"/>
</linearGradient>
<linearGradient id="paint5_linear_3974_7934" x1="86.7871" y1="9.33334" x2="86.7871" y2="114.333" gradientUnits="userSpaceOnUse">
<stop stop-color="white"/>
<stop offset="1" stop-color="#F0F0F0"/>
</linearGradient>
</defs>
</svg>
