<svg width="46" height="35" viewBox="0 0 46 35" fill="none" xmlns="http://www.w3.org/2000/svg">
<path fill-rule="evenodd" clip-rule="evenodd" d="M5.73633 3.26965H40.8624V31.2952H5.73633V3.26965Z" fill="url(#paint0_linear_3974_7948)"/>
<path fill-rule="evenodd" clip-rule="evenodd" d="M5.73242 3.26965H40.8584V31.2952H5.73242V3.26965Z" fill="url(#paint1_linear_3974_7948)"/>
<path fill-rule="evenodd" clip-rule="evenodd" d="M14.1037 21.9534H5.7315V12.6115H14.1037L2.25195 3.6821L4.12264 0.584198L19.1128 11.8782V1.4013H27.4762V11.8782L42.4664 0.584198L44.3371 3.6821L32.4853 12.6115H40.8575V21.9534H32.4853L44.3371 30.8828L42.4664 33.9807L27.4762 22.6867V33.1636H19.1128V22.6867L4.12264 33.9807L2.25195 30.8828L14.1037 21.9534Z" fill="url(#paint2_linear_3974_7948)"/>
<path d="M29.3805 12.5331L45.2692 0.857366C45.4621 0.715586 45.5156 0.425942 45.3887 0.210429C45.2618 -0.00508394 45.0025 -0.0648565 44.8095 0.0769237L28.9208 11.7526C28.7279 11.8944 28.6744 12.1841 28.8013 12.3996C28.9282 12.6151 29.1875 12.6749 29.3805 12.5331Z" fill="#DB1F35"/>
<path d="M30.6044 22.8511L44.8478 33.5748C45.0393 33.719 45.2992 33.6625 45.4283 33.4486C45.5574 33.2347 45.5068 32.9444 45.3153 32.8002L31.0719 22.0765C30.8803 21.9323 30.6205 21.9888 30.4914 22.2027C30.3623 22.4166 30.4129 22.7069 30.6044 22.8511Z" fill="#DB1F35"/>
<path d="M16.009 11.725L1.15191 0.540829C0.960395 0.396659 0.70051 0.453205 0.571442 0.667127C0.442373 0.881049 0.492995 1.17134 0.68451 1.31551L15.5416 12.4997C15.7331 12.6439 15.993 12.5874 16.1221 12.3734C16.2511 12.1595 16.2005 11.8692 16.009 11.725Z" fill="#DB1F35"/>
<path d="M17.1556 21.9446L0.687103 34.1435C0.494632 34.2861 0.442074 34.576 0.569712 34.791C0.69735 35.006 0.95685 35.0647 1.14932 34.9221L17.6178 22.7232C17.8103 22.5806 17.8628 22.2907 17.7352 22.0758C17.6076 21.8608 17.3481 21.8021 17.1556 21.9446Z" fill="#DB1F35"/>
<path fill-rule="evenodd" clip-rule="evenodd" d="M5.73242 20.085H20.7864V31.2952H25.8044V20.085H40.8584V14.4799H25.8044V3.26965H20.7864V14.4799H5.73242V20.085Z" fill="url(#paint3_linear_3974_7948)"/>
<defs>
<linearGradient id="paint0_linear_3974_7948" x1="374.56" y1="3.26965" x2="374.56" y2="423.653" gradientUnits="userSpaceOnUse">
<stop stop-color="white"/>
<stop offset="1" stop-color="#F0F0F0"/>
</linearGradient>
<linearGradient id="paint1_linear_3974_7948" x1="374.556" y1="3.26965" x2="374.556" y2="423.653" gradientUnits="userSpaceOnUse">
<stop stop-color="#0A17A7"/>
<stop offset="1" stop-color="#030E88"/>
</linearGradient>
<linearGradient id="paint2_linear_3974_7948" x1="444.146" y1="0.584198" x2="444.146" y2="501.532" gradientUnits="userSpaceOnUse">
<stop stop-color="white"/>
<stop offset="1" stop-color="#F0F0F0"/>
</linearGradient>
<linearGradient id="paint3_linear_3974_7948" x1="374.556" y1="3.26965" x2="374.556" y2="423.653" gradientUnits="userSpaceOnUse">
<stop stop-color="#E6273E"/>
<stop offset="1" stop-color="#CF152B"/>
</linearGradient>
</defs>
</svg>
