<svg width="46" height="45" viewBox="0 0 46 45" fill="none" xmlns="http://www.w3.org/2000/svg">
<rect x="1" y="0.593201" width="44" height="44" rx="15" fill="white"/>
<rect x="1" y="0.593201" width="44" height="44" rx="15" stroke="#C4C4C4" stroke-width="0.5"/>
<path d="M23.0003 14.0058C25.0063 13.975 26.9463 14.7221 28.4132 16.0905L32.3641 12.228C29.8293 9.85332 26.4738 8.55118 23.0003 8.59424C20.405 8.59364 17.8607 9.31484 15.6519 10.6772C13.4431 12.0396 11.657 13.9894 10.4932 16.3086L15.0203 19.8225C15.5738 18.1398 16.6418 16.6732 18.0735 15.6296C19.5052 14.586 21.2285 14.0181 23.0003 14.0058Z" fill="#E43E2B"/>
<path d="M36.44 22.903C36.4565 21.9408 36.3571 20.9802 36.1438 20.0417H23V25.2367H30.7162C30.5698 26.1475 30.2407 27.0192 29.7486 27.7996C29.2566 28.5799 28.6117 29.2527 27.8529 29.7775L32.271 33.1986C33.6479 31.8696 34.7307 30.2666 35.4495 28.4932C36.1683 26.7198 36.5071 24.8154 36.444 22.903H36.44Z" fill="#3B7DED"/>
<path d="M15.0366 25.3587C14.7305 24.4676 14.5727 23.5324 14.5695 22.5903C14.5751 21.6497 14.7272 20.7157 15.0205 19.8219L10.4933 16.3079C9.51145 18.2569 9 20.4087 9 22.591C9 24.7732 9.51145 26.925 10.4933 28.874L15.0366 25.3587Z" fill="#F0B501"/>
<path d="M23.0007 36.5879C26.4109 36.6843 29.7285 35.4712 32.2717 33.1978L27.8536 29.7766C26.4211 30.7368 24.7246 31.2261 23.0007 31.1763C21.2304 31.1658 19.5084 30.5982 18.0789 29.5542C16.6495 28.5101 15.5851 27.0425 15.0369 25.3596L10.5098 28.8749C11.6704 31.1931 13.4537 33.1424 15.6598 34.5047C17.8659 35.8669 20.4078 36.5883 23.0007 36.5879Z" fill="#2BA24C"/>
</svg>
