<svg width="112" height="62" viewBox="0 0 112 62" fill="none" xmlns="http://www.w3.org/2000/svg">
<g filter="url(#filter0_dd_3586_6645)">
<rect x="8" y="4" width="100" height="50" rx="10" fill="white"/>
<path d="M59.1615 29.0583V35.8995H57V19.0013H62.7297C64.113 18.9706 65.4469 19.4983 66.4409 20.4643C67.4467 21.3736 68.0117 22.6739 67.9906 24.0309C68.0211 25.3973 67.4537 26.7072 66.4409 27.6189C65.4375 28.58 64.1997 29.0606 62.7297 29.0583H59.1615ZM59.1615 21.0814V26.9829H62.7837C63.5877 27.0064 64.3614 26.6907 64.9219 26.1088C66.0565 25.0016 66.0845 23.1758 64.978 22.0356C64.9593 22.0167 64.9405 21.9955 64.9219 21.979C64.3709 21.3853 63.5902 21.0602 62.7837 21.0814H59.1615ZM72.9701 23.9603C74.5691 23.9603 75.8279 24.389 76.7517 25.2466C77.6754 26.104 78.1372 27.2821 78.1372 28.7733V35.902H76.0717V34.2953H75.978C75.0825 35.6168 73.8916 36.2788 72.4074 36.2788C71.1391 36.2788 70.0794 35.902 69.2261 35.1457C68.3985 34.4437 67.9273 33.4047 67.946 32.314C67.946 31.1172 68.3963 30.1655 69.2965 29.4588C70.1967 28.7521 71.397 28.3963 72.9021 28.3963C74.1845 28.3963 75.2419 28.6318 76.0717 29.103V28.6059C76.0764 27.8615 75.7483 27.1571 75.1786 26.686C74.6066 26.1677 73.8633 25.885 73.0921 25.8944C71.887 25.8944 70.9305 26.4057 70.2272 27.4281L68.3259 26.2243C69.3692 24.7141 70.9189 23.9603 72.9701 23.9603ZM70.1732 32.3611C70.1709 32.9218 70.4382 33.4496 70.8884 33.777C71.3665 34.1538 71.9597 34.3564 72.5668 34.3424C73.4789 34.34 74.3534 33.9749 74.9981 33.3271C75.7131 32.6486 76.0717 31.857 76.0717 30.943C75.3966 30.4035 74.4588 30.1325 73.2538 30.1325C72.3771 30.1325 71.6433 30.3446 71.0571 30.7709C70.4686 31.2068 70.1732 31.7321 70.1732 32.3611ZM90 24.3371L82.7862 41H80.5567L83.234 35.1692L78.4865 24.3371H80.8357L84.2655 32.6438H84.3123L87.6485 24.3371H90Z" fill="#4A4A4A"/>
<path d="M48.1932 29.4831C48.1932 28.6509 48.1272 27.8217 47.9894 27.0012H36.8306V31.7012H43.2211C42.9569 33.2175 42.1042 34.559 40.8584 35.409V38.4624H44.6736C46.9071 36.3419 48.1932 33.1997 48.1932 29.4831Z" fill="#4285F4"/>
<path d="M36.8304 41.4121C40.0228 41.4121 42.7128 40.3311 44.6734 38.4653L40.8582 35.4119C39.796 36.1553 38.4295 36.5788 36.8304 36.5788C33.7444 36.5788 31.1261 34.4318 30.1874 31.5413H26.2603V34.6863C28.2697 38.8119 32.3578 41.4121 36.8304 41.4121Z" fill="#34A853"/>
<path d="M30.1896 31.5414C29.6931 30.0281 29.6931 28.3844 30.1896 26.8683V23.7261H26.2597C24.5801 27.1761 24.5801 31.2393 26.2597 34.6896L30.1896 31.5414Z" fill="#FBBC04"/>
<path d="M36.8304 21.8338C38.5185 21.8071 40.1462 22.4617 41.3691 23.6641L44.7481 20.1812C42.6065 18.1083 39.7702 16.9681 36.8304 17.0007C32.3578 17.0007 28.2669 19.6037 26.2603 23.7262L30.1902 26.8713C31.1261 23.9778 33.7444 21.8338 36.8304 21.8338Z" fill="#EA4335"/>
</g>
<defs>
<filter id="filter0_dd_3586_6645" x="0" y="0" width="112" height="62" filterUnits="userSpaceOnUse" color-interpolation-filters="sRGB">
<feFlood flood-opacity="0" result="BackgroundImageFix"/>
<feColorMatrix in="SourceAlpha" type="matrix" values="0 0 0 0 0 0 0 0 0 0 0 0 0 0 0 0 0 0 127 0" result="hardAlpha"/>
<feOffset dy="4"/>
<feGaussianBlur stdDeviation="2"/>
<feComposite in2="hardAlpha" operator="out"/>
<feColorMatrix type="matrix" values="0 0 0 0 0 0 0 0 0 0 0 0 0 0 0 0 0 0 0.25 0"/>
<feBlend mode="normal" in2="BackgroundImageFix" result="effect1_dropShadow_3586_6645"/>
<feColorMatrix in="SourceAlpha" type="matrix" values="0 0 0 0 0 0 0 0 0 0 0 0 0 0 0 0 0 0 127 0" result="hardAlpha"/>
<feOffset dx="-4"/>
<feGaussianBlur stdDeviation="2"/>
<feComposite in2="hardAlpha" operator="out"/>
<feColorMatrix type="matrix" values="0 0 0 0 0 0 0 0 0 0 0 0 0 0 0 0 0 0 0.25 0"/>
<feBlend mode="normal" in2="effect1_dropShadow_3586_6645" result="effect2_dropShadow_3586_6645"/>
<feBlend mode="normal" in="SourceGraphic" in2="effect2_dropShadow_3586_6645" result="shape"/>
</filter>
</defs>
</svg>
