<svg width="221" height="71" viewBox="0 0 221 71" fill="none" xmlns="http://www.w3.org/2000/svg">
<rect x="0.0742188" y="0.230469" width="219.967" height="70.3693" rx="10" fill="white"/>
<path d="M21.7748 17.0313C21.331 17.4849 21.0742 18.191 21.0742 19.1055V51.7251C21.0742 52.6396 21.331 53.3458 21.7748 53.7994L21.8844 53.8989L40.6062 35.6274V35.1959L21.8844 16.9244L21.7748 17.0313Z" fill="url(#paint0_linear_3974_8162)"/>
<path d="M46.8392 41.7212L40.6055 35.6276V35.1962L46.8467 29.1026L46.9865 29.1819L54.3778 33.2879C56.4871 34.4531 56.4871 36.3706 54.3778 37.5433L46.9865 41.6419L46.8392 41.7212Z" fill="url(#paint1_linear_3974_8162)"/>
<path d="M46.9878 41.642L40.6068 35.412L21.7754 53.7997C22.476 54.5188 23.6185 54.6054 24.9177 53.8864L46.9878 41.642Z" fill="url(#paint2_linear_3974_8162)"/>
<path d="M46.9878 29.1816L24.9177 16.9373C23.6185 16.2256 22.476 16.3122 21.7754 17.0313L40.6068 35.4116L46.9878 29.1816Z" fill="url(#paint3_linear_3974_8162)"/>
<path d="M80.1236 18.2141C80.1236 19.4457 79.7459 20.4322 79.0019 21.1678C78.1464 22.0399 77.0322 22.4787 75.6669 22.4787C74.362 22.4787 73.2478 22.0325 72.3338 21.1531C71.4179 20.2607 70.9609 19.1655 70.9609 17.8546C70.9609 16.5437 71.4179 15.4485 72.3338 14.5635C73.2478 13.6767 74.362 13.2305 75.6669 13.2305C76.3165 13.2305 76.9359 13.3614 77.527 13.6048C78.1162 13.85 78.5958 14.1818 78.9433 14.5912L78.154 15.3692C77.5478 14.6704 76.7225 14.3257 75.6669 14.3257C74.7151 14.3257 73.8899 14.6502 73.1893 15.3047C72.4962 15.9611 72.1488 16.811 72.1488 17.8546C72.1488 18.8982 72.4962 19.7555 73.1893 20.4119C73.8899 21.059 74.7151 21.3909 75.6669 21.3909C76.6772 21.3909 77.527 21.059 78.1974 20.4045C78.6393 19.9712 78.8904 19.3738 78.9565 18.6105H75.6669V17.5448H80.0556C80.1085 17.7753 80.1236 17.9984 80.1236 18.2141Z" fill="black" stroke="black" stroke-width="0.16" stroke-miterlimit="10"/>
<path d="M87.0864 14.5191H82.9639V17.3216H86.6803V18.3873H82.9639V21.1898H87.0864V22.2757H81.7969V13.4331H87.0864V14.5191Z" fill="black" stroke="black" stroke-width="0.16" stroke-miterlimit="10"/>
<path d="M92.0003 22.2757H90.8333V14.5191H88.3047V13.4331H94.5308V14.5191H92.0003V22.2757Z" fill="black" stroke="black" stroke-width="0.16" stroke-miterlimit="10"/>
<path d="M99.0352 22.2757V13.4331H100.2V22.2757H99.0352Z" fill="black" stroke="black" stroke-width="0.16" stroke-miterlimit="10"/>
<path d="M105.366 22.2757H104.208V14.5191H101.67V13.4331H107.904V14.5191H105.366V22.2757Z" fill="black" stroke="black" stroke-width="0.16" stroke-miterlimit="10"/>
<path d="M119.691 21.1383C118.798 22.0325 117.692 22.4787 116.372 22.4787C115.044 22.4787 113.937 22.0325 113.044 21.1383C112.153 20.2459 111.709 19.1507 111.709 17.8546C111.709 16.5584 112.153 15.4632 113.044 14.5709C113.937 13.6767 115.044 13.2305 116.372 13.2305C117.684 13.2305 118.791 13.6767 119.684 14.5782C120.583 15.478 121.026 16.5658 121.026 17.8546C121.026 19.1507 120.583 20.2459 119.691 21.1383ZM113.907 20.3971C114.579 21.059 115.397 21.3909 116.372 21.3909C117.338 21.3909 118.164 21.059 118.828 20.3971C119.499 19.7352 119.839 18.8852 119.839 17.8546C119.839 16.8239 119.499 15.974 118.828 15.3121C118.164 14.6502 117.338 14.3183 116.372 14.3183C115.397 14.3183 114.579 14.6502 113.907 15.3121C113.237 15.974 112.897 16.8239 112.897 17.8546C112.897 18.8852 113.237 19.7352 113.907 20.3971Z" fill="black" stroke="black" stroke-width="0.16" stroke-miterlimit="10"/>
<path d="M122.664 22.2757V13.4331H124.08L128.484 20.3103H128.535L128.484 18.6104V13.4331H129.649V22.2757H128.433L123.822 15.0593H123.771L123.822 16.7666V22.2757H122.664Z" fill="black" stroke="black" stroke-width="0.16" stroke-miterlimit="10"/>
<path d="M111.894 39.4202C108.346 39.4202 105.447 42.0568 105.447 45.6945C105.447 49.3027 108.346 51.967 111.894 51.967C115.45 51.967 118.349 49.3027 118.349 45.6945C118.349 42.0568 115.45 39.4202 111.894 39.4202ZM111.894 49.4963C109.947 49.4963 108.272 47.9273 108.272 45.6945C108.272 43.4322 109.947 41.8909 111.894 41.8909C113.841 41.8909 115.524 43.4322 115.524 45.6945C115.524 47.9273 113.841 49.4963 111.894 49.4963ZM97.8276 39.4202C94.2717 39.4202 91.3805 42.0568 91.3805 45.6945C91.3805 49.3027 94.2717 51.967 97.8276 51.967C101.382 51.967 104.275 49.3027 104.275 45.6945C104.275 42.0568 101.382 39.4202 97.8276 39.4202ZM97.8276 49.4963C95.8787 49.4963 94.198 47.9273 94.198 45.6945C94.198 43.4322 95.8787 41.8909 97.8276 41.8909C99.7745 41.8909 101.45 43.4322 101.45 45.6945C101.45 47.9273 99.7745 49.4963 97.8276 49.4963ZM81.0886 41.3433V44.0093H87.6093C87.4186 45.4991 86.9087 46.5943 86.1269 47.3576C85.1751 48.2795 83.6927 49.3027 81.0886 49.3027C77.0757 49.3027 73.9333 46.1407 73.9333 42.2227C73.9333 38.3048 77.0757 35.1427 81.0886 35.1427C83.2584 35.1427 84.8371 35.9706 86.0022 37.0436L87.9266 35.1649C86.2968 33.6456 84.1289 32.4785 81.0886 32.4785C75.5857 32.4785 70.9609 36.8501 70.9609 42.2227C70.9609 47.5954 75.5857 51.967 81.0886 51.967C84.0628 51.967 86.2968 51.0156 88.0531 49.2308C89.8527 47.4737 90.4136 45.0031 90.4136 43.0082C90.4136 42.3887 90.3607 41.819 90.2663 41.3433H81.0886ZM149.536 43.4101C149.006 42.007 147.369 39.4202 144.034 39.4202C140.729 39.4202 137.977 41.9628 137.977 45.6945C137.977 49.2087 140.7 51.967 144.351 51.967C147.302 51.967 149.006 50.2099 149.706 49.1866L147.516 47.7614C146.785 48.8049 145.79 49.4963 144.351 49.4963C142.921 49.4963 141.896 48.8565 141.239 47.5954L149.833 44.1236L149.536 43.4101ZM140.774 45.4991C140.701 43.0801 142.698 41.8411 144.13 41.8411C145.252 41.8411 146.203 42.3887 146.521 43.1723L140.774 45.4991ZM133.789 51.5853H136.614V33.1478H133.789V51.5853ZM129.162 40.8178H129.068C128.433 40.084 127.223 39.4202 125.689 39.4202C122.472 39.4202 119.529 42.1785 119.529 45.7148C119.529 49.2308 122.472 51.967 125.689 51.967C127.223 51.967 128.433 51.2977 129.068 50.5417H129.162V51.4415C129.162 53.8402 127.85 55.129 125.733 55.129C124.007 55.129 122.936 53.9121 122.494 52.8888L120.037 53.89C120.746 55.553 122.621 57.5996 125.733 57.5996C129.045 57.5996 131.84 55.6969 131.84 51.0672V39.8019H129.162V40.8178ZM125.931 49.4963C123.984 49.4963 122.354 47.9052 122.354 45.7148C122.354 43.5041 123.984 41.8909 125.931 41.8909C127.85 41.8909 129.362 43.5041 129.362 45.7148C129.362 47.9052 127.85 49.4963 125.931 49.4963ZM162.763 33.1478H156.006V51.5853H158.824V44.5993H162.763C165.892 44.5993 168.961 42.3887 168.961 38.8726C168.961 35.3585 165.885 33.1478 162.763 33.1478ZM162.837 42.0347H158.824V35.7125H162.837C164.94 35.7125 166.141 37.4179 166.141 38.8726C166.141 40.2997 164.94 42.0347 162.837 42.0347ZM180.254 39.3852C178.218 39.3852 176.101 40.2628 175.23 42.208L177.731 43.2313C178.269 42.208 179.258 41.8761 180.305 41.8761C181.766 41.8761 183.249 42.7335 183.271 44.2472V44.4408C182.761 44.1531 181.67 43.7272 180.327 43.7272C177.634 43.7272 174.89 45.1746 174.89 47.8757C174.89 50.3463 177.096 51.9375 179.576 51.9375C181.472 51.9375 182.518 51.1022 183.175 50.1306H183.271V51.5558H185.993V44.4832C185.993 41.2142 183.492 39.3852 180.254 39.3852ZM179.914 49.489C178.992 49.489 177.708 49.0428 177.708 47.9273C177.708 46.5002 179.309 45.9526 180.695 45.9526C181.936 45.9526 182.518 46.22 183.271 46.5721C183.05 48.2795 181.545 49.489 179.914 49.489ZM195.907 39.789L192.668 47.7816H192.572L189.224 39.789H186.185L191.216 50.9584L188.345 57.1737H191.29L199.042 39.789H195.907ZM170.509 51.5853H173.334V33.1478H170.509V51.5853Z" fill="black"/>
<defs>
<linearGradient id="paint0_linear_3974_8162" x1="38.9439" y1="52.0648" x2="14.197" y2="26.7183" gradientUnits="userSpaceOnUse">
<stop stop-color="#00A0FF"/>
<stop offset="0.0066" stop-color="#00A1FF"/>
<stop offset="0.2601" stop-color="#00BEFF"/>
<stop offset="0.5122" stop-color="#00D2FF"/>
<stop offset="0.7604" stop-color="#00DFFF"/>
<stop offset="1" stop-color="#00E3FF"/>
</linearGradient>
<linearGradient id="paint1_linear_3974_8162" x1="57.1245" y1="35.4098" x2="20.5693" y2="35.4098" gradientUnits="userSpaceOnUse">
<stop stop-color="#FFE000"/>
<stop offset="0.4087" stop-color="#FFBD00"/>
<stop offset="0.7754" stop-color="#FFA500"/>
<stop offset="1" stop-color="#FF9C00"/>
</linearGradient>
<linearGradient id="paint2_linear_3974_8162" x1="43.518" y1="32.0252" x2="9.9591" y2="-2.34681" gradientUnits="userSpaceOnUse">
<stop stop-color="#FF3A44"/>
<stop offset="1" stop-color="#C31162"/>
</linearGradient>
<linearGradient id="paint3_linear_3974_8162" x1="17.0351" y1="64.6517" x2="32.0207" y2="49.3032" gradientUnits="userSpaceOnUse">
<stop stop-color="#32A071"/>
<stop offset="0.0685" stop-color="#2DA771"/>
<stop offset="0.4762" stop-color="#15CF74"/>
<stop offset="0.8009" stop-color="#06E775"/>
<stop offset="1" stop-color="#00F076"/>
</linearGradient>
</defs>
</svg>
