<svg width="30" height="31" viewBox="0 0 30 31" fill="none" xmlns="http://www.w3.org/2000/svg">
<path d="M15 3.54092C18.9759 3.54092 19.5181 3.54092 21.1446 3.54092C22.5904 3.54092 23.3133 3.90237 23.8554 4.08309C24.5783 4.44454 25.1205 4.62526 25.6627 5.16743C26.2048 5.7096 26.5663 6.25177 26.747 6.97466C26.9277 7.51683 27.1084 8.23972 27.2892 9.6855C27.2892 11.312 27.2892 11.6735 27.2892 15.8301C27.2892 19.9867 27.2892 20.3482 27.2892 21.9747C27.2892 23.4204 26.9277 24.1433 26.747 24.6855C26.3855 25.4084 26.2048 25.9506 25.6627 26.4927C25.1205 27.0349 24.5783 27.3963 23.8554 27.5771C23.3133 27.7578 22.5904 27.9385 21.1446 28.1192C19.5181 28.1192 19.1566 28.1192 15 28.1192C10.8434 28.1192 10.4819 28.1192 8.85542 28.1192C7.40964 28.1192 6.68675 27.7578 6.14458 27.5771C5.42169 27.2156 4.87952 27.0349 4.33735 26.4927C3.79518 25.9506 3.43374 25.4084 3.25301 24.6855C3.07229 24.1433 2.89157 23.4204 2.71084 21.9747C2.71084 20.3482 2.71084 19.9867 2.71084 15.8301C2.71084 11.6735 2.71084 11.312 2.71084 9.6855C2.71084 8.23972 3.07229 7.51683 3.25301 6.97466C3.61446 6.25177 3.79518 5.7096 4.33735 5.16743C4.87952 4.62526 5.42169 4.26381 6.14458 4.08309C6.68675 3.90237 7.40964 3.72164 8.85542 3.54092C10.4819 3.54092 11.0241 3.54092 15 3.54092ZM15 0.830078C10.8434 0.830078 10.4819 0.830078 8.85542 0.830078C7.22892 0.830078 6.14458 1.19152 5.24097 1.55297C4.33735 1.91442 3.43374 2.45659 2.53012 3.3602C1.62651 4.26381 1.26506 4.98671 0.722893 6.07104C0.361447 6.97466 0.180723 8.059 0 9.6855C0 11.312 0 11.8542 0 15.8301C0 19.9867 0 20.3482 0 21.9747C0 23.6012 0.361447 24.6855 0.722893 25.5891C1.08434 26.4927 1.62651 27.3963 2.53012 28.3C3.43374 29.2036 4.15663 29.565 5.24097 30.1072C6.14458 30.4686 7.22892 30.6494 8.85542 30.8301C10.4819 30.8301 11.0241 30.8301 15 30.8301C18.9759 30.8301 19.5181 30.8301 21.1446 30.8301C22.7711 30.8301 23.8554 30.4686 24.759 30.1072C25.6627 29.7457 26.5663 29.2036 27.4699 28.3C28.3735 27.3963 28.7349 26.6735 29.2771 25.5891C29.6386 24.6855 29.8193 23.6012 30 21.9747C30 20.3482 30 19.806 30 15.8301C30 11.8542 30 11.312 30 9.6855C30 8.059 29.6386 6.97466 29.2771 6.07104C28.9157 5.16743 28.3735 4.26381 27.4699 3.3602C26.5663 2.45659 25.8434 2.09514 24.759 1.55297C23.8554 1.19152 22.7711 1.0108 21.1446 0.830078C19.5181 0.830078 19.1566 0.830078 15 0.830078Z" fill="black"/>
<path d="M15 8.05899C10.6627 8.05899 7.22892 11.4927 7.22892 15.8301C7.22892 20.1674 10.6627 23.6012 15 23.6012C19.3374 23.6012 22.7711 20.1674 22.7711 15.8301C22.7711 11.4927 19.3374 8.05899 15 8.05899ZM15 20.8903C12.2892 20.8903 9.93976 18.7216 9.93976 15.8301C9.93976 13.1192 12.1084 10.7698 15 10.7698C17.7108 10.7698 20.0602 12.9385 20.0602 15.8301C20.0602 18.5409 17.7108 20.8903 15 20.8903Z" fill="black"/>
<path d="M22.9518 9.6855C23.9499 9.6855 24.759 8.87638 24.759 7.87827C24.759 6.88017 23.9499 6.07104 22.9518 6.07104C21.9537 6.07104 21.1446 6.88017 21.1446 7.87827C21.1446 8.87638 21.9537 9.6855 22.9518 9.6855Z" fill="black"/>
</svg>
