<svg width="30" height="31" viewBox="0 0 30 31" fill="none" xmlns="http://www.w3.org/2000/svg">
<path d="M0 15.8301C0 24.1143 6.71573 30.8301 15 30.8301C23.2843 30.8301 30 24.1143 30 15.8301C30 7.54581 23.2843 0.830078 15 0.830078C6.71573 0.830078 0 7.54581 0 15.8301Z" fill="black"/>
<path d="M10.875 23.3301H7.6875V13.2988H10.875V23.3301ZM9.28125 11.8926C8.25 11.8926 7.5 11.1426 7.5 10.1113C7.5 9.08008 8.34375 8.33008 9.28125 8.33008C10.3125 8.33008 11.0625 9.08008 11.0625 10.1113C11.0625 11.1426 10.3125 11.8926 9.28125 11.8926ZM22.5 23.3301H19.3125V17.8926C19.3125 16.2988 18.6562 15.8301 17.7187 15.8301C16.7812 15.8301 15.8437 16.5801 15.8437 17.9863V23.3301H12.6562V13.2988H15.6562V14.7051C15.9375 14.0488 17.0625 13.0176 18.6562 13.0176C20.4375 13.0176 22.3125 14.0488 22.3125 17.1426V23.3301H22.5Z" fill="white"/>
</svg>
