<svg width="22" height="22" viewBox="0 0 22 22" fill="none" xmlns="http://www.w3.org/2000/svg">
<ellipse cx="10.9472" cy="6.37986" rx="4.37986" ry="4.37986" stroke="black" stroke-width="1.5" stroke-linecap="round" stroke-linejoin="round"/>
<path fill-rule="evenodd" clip-rule="evenodd" d="M4.00001 16.8512C3.99884 16.5433 4.0677 16.2392 4.20139 15.9618C4.62091 15.1228 5.80398 14.6781 6.78567 14.4767C7.49367 14.3256 8.21145 14.2247 8.93365 14.1746C10.2708 14.0572 11.6156 14.0572 12.9527 14.1746C13.6749 14.2253 14.3926 14.3262 15.1007 14.4767C16.0824 14.6781 17.2655 15.0808 17.685 15.9618C17.9538 16.5272 17.9538 17.1836 17.685 17.749C17.2655 18.63 16.0824 19.0328 15.1007 19.2257C14.3935 19.3831 13.6755 19.4869 12.9527 19.5362C11.8644 19.6285 10.771 19.6453 9.68041 19.5865C9.4287 19.5865 9.18537 19.5865 8.93365 19.5362C8.21358 19.4875 7.49829 19.3837 6.79407 19.2257C5.80398 19.0328 4.62931 18.63 4.20139 17.749C4.06838 17.4684 3.99959 17.1617 4.00001 16.8512Z" stroke="black" stroke-width="1.5" stroke-linecap="round" stroke-linejoin="round"/>
</svg>
