<svg width="112" height="62" viewBox="0 0 112 62" fill="none" xmlns="http://www.w3.org/2000/svg">
<g filter="url(#filter0_dd_3586_6682)">
<rect x="8" y="4" width="100" height="50" rx="10" fill="white"/>
<path d="M49.9951 23.8154H46.8372C46.6211 23.8154 46.4373 24.0202 46.4036 24.2986L45.1264 34.8651C45.101 35.0735 45.2247 35.2615 45.3868 35.2615H46.8944C47.1105 35.2615 47.2943 35.0567 47.328 34.7777L47.6725 31.9278C47.7057 31.6488 47.89 31.4439 48.1056 31.4439H49.1053C51.1855 31.4439 52.3861 30.1304 52.6996 27.5275C52.8409 26.3887 52.7056 25.494 52.297 24.8674C51.8481 24.1793 51.0521 23.8154 49.9951 23.8154ZM50.3594 27.6745C50.1867 29.1531 49.321 29.1531 48.4838 29.1531H48.0073L48.3416 26.3918C48.3614 26.2249 48.4722 26.1019 48.6015 26.1019H48.82C49.3902 26.1019 49.9282 26.1019 50.2061 26.5261C50.3719 26.7792 50.4227 27.1552 50.3594 27.6745Z" fill="#253B80"/>
<path d="M60.1145 27.8077H58.5583C58.4257 27.8077 58.3112 27.9249 58.2907 28.0841L58.2218 28.6103L58.113 28.4196C57.7761 27.8284 57.0248 27.6308 56.275 27.6308C54.5553 27.6308 53.0865 29.2054 52.8004 31.4143C52.6517 32.5161 52.8631 33.5697 53.3801 34.3045C53.8544 34.9801 54.5329 35.2616 55.3403 35.2616C56.7259 35.2616 57.4943 34.1844 57.4943 34.1844L57.4249 34.7072C57.3988 34.9071 57.5261 35.0864 57.692 35.0864H59.0938C59.3167 35.0864 59.5048 34.891 59.54 34.625L60.3811 28.1857C60.4077 27.9875 60.2808 27.8077 60.1145 27.8077ZM57.9453 31.4694C57.7951 32.5443 57.0894 33.2658 56.1894 33.2658C55.7375 33.2658 55.3764 33.0906 55.1445 32.7586C54.9145 32.4288 54.8271 31.9595 54.9003 31.4367C55.0404 30.3711 55.758 29.626 56.6442 29.626C57.0861 29.626 57.4454 29.8035 57.682 30.1384C57.9191 30.4768 58.0132 30.949 57.9453 31.4694Z" fill="#253B80"/>
<path d="M69.6135 27.6308H67.8287C67.6584 27.6308 67.4985 27.7178 67.4019 27.8634L64.9403 31.5922L63.8969 28.0089C63.8313 27.7847 63.6301 27.6308 63.4023 27.6308H61.6484C61.4353 27.6308 61.2873 27.845 61.355 28.0513L63.321 33.9842L61.4727 36.6673C61.3274 36.8787 61.4738 37.1693 61.7249 37.1693H63.5075C63.6767 37.1693 63.8351 37.0845 63.9311 36.9417L69.8673 28.1299C70.0094 27.9191 69.8635 27.6308 69.6135 27.6308Z" fill="#253B80"/>
<path d="M74.4506 23.8154H70.8972C70.6546 23.8154 70.4478 24.0202 70.4099 24.2986L68.973 34.8651C68.9444 35.0735 69.0836 35.2615 69.2649 35.2615H71.0884C71.2577 35.2615 71.4027 35.1181 71.4292 34.9229L71.837 31.9278C71.8744 31.6488 72.0817 31.4439 72.3243 31.4439H73.4485C75.7893 31.4439 77.1395 30.1304 77.4928 27.5275C77.6522 26.3887 77.499 25.494 77.0392 24.8674C76.5348 24.1793 75.6397 23.8154 74.4506 23.8154ZM74.8604 27.6745C74.6667 29.1531 73.6926 29.1531 72.7502 29.1531H72.2146L72.5913 26.3918C72.6136 26.2249 72.7373 26.1019 72.8832 26.1019H73.129C73.77 26.1019 74.3758 26.1019 74.6885 26.5261C74.875 26.7792 74.9316 27.1552 74.8604 27.6745Z" fill="#179BD7"/>
<path d="M84.9128 27.8077H83.3574C83.2239 27.8077 83.1103 27.9249 83.0904 28.0841L83.0215 28.6103L82.9122 28.4196C82.5752 27.8284 81.8244 27.6308 81.0745 27.6308C79.3547 27.6308 77.8863 29.2054 77.6003 31.4143C77.452 32.5161 77.6625 33.5697 78.1795 34.3045C78.6548 34.9801 79.3324 35.2616 80.1398 35.2616C81.5255 35.2616 82.2939 34.1844 82.2939 34.1844L82.2245 34.7072C82.1984 34.9071 82.3258 35.0864 82.4926 35.0864H83.894C84.1159 35.0864 84.305 34.891 84.3397 34.625L85.1813 28.1857C85.207 27.9875 85.0796 27.8077 84.9128 27.8077ZM82.7435 31.4694C82.5943 32.5443 81.8876 33.2658 80.9876 33.2658C80.5366 33.2658 80.1745 33.0906 79.9426 32.7586C79.7126 32.4288 79.6261 31.9595 79.6983 31.4367C79.8395 30.3711 80.5561 29.626 81.4423 29.626C81.8843 29.626 82.2435 29.8035 82.4802 30.1384C82.7183 30.4768 82.8124 30.949 82.7435 31.4694Z" fill="#179BD7"/>
<path d="M86.6958 24.1058L85.1885 34.8651C85.159 35.0735 85.3029 35.2615 85.4903 35.2615H87.0056C87.2574 35.2615 87.4712 35.0567 87.5098 34.7777L88.9962 24.2124C89.0257 24.0039 88.8818 23.8154 88.6944 23.8154H86.9975C86.8477 23.816 86.7189 23.9389 86.6958 24.1058Z" fill="#179BD7"/>
<path d="M37.0779 21.9077C37.0627 22.0139 37.0454 22.1225 37.0259 22.234C36.3565 26.0017 34.0662 27.3032 31.1412 27.3032H29.6519C29.2942 27.3032 28.9927 27.588 28.937 27.9748L28.1745 33.276L27.9585 34.7787C27.9223 35.0326 28.1009 35.2616 28.3347 35.2616H30.9761C31.2889 35.2616 31.5547 35.0124 31.6039 34.6743L31.6299 34.5271L32.1272 31.0674L32.1591 30.8775C32.2078 30.5382 32.4741 30.289 32.7869 30.289H33.182C35.7412 30.289 37.7446 29.15 38.3302 25.854C38.5748 24.477 38.4481 23.3273 37.8009 22.5188C37.605 22.2749 37.362 22.0726 37.0779 21.9077Z" fill="#179BD7"/>
<path d="M36.9179 23.0887C36.8341 23.0605 36.7475 23.0349 36.6587 23.0119C36.5695 22.9894 36.4781 22.9695 36.384 22.9521C36.0546 22.8907 35.6938 22.8615 35.3072 22.8615H32.044C31.9636 22.8615 31.8873 22.8825 31.8189 22.9203C31.6685 23.0037 31.5566 23.1679 31.5295 23.369L30.8353 28.4367L30.8154 28.5846C30.8611 28.251 31.1083 28.0055 31.4017 28.0055H32.6232C35.0222 28.0055 36.9006 26.8826 37.4497 23.634C37.4661 23.5378 37.4799 23.4442 37.4923 23.3526C37.3534 23.2677 37.2029 23.1951 37.0409 23.1332C37.0009 23.1178 36.9597 23.103 36.9179 23.0887Z" fill="#222D65"/>
<path d="M31.7465 24.3794C31.7766 24.1558 31.901 23.9732 32.0684 23.8811C32.1449 23.839 32.2293 23.8157 32.3187 23.8157H35.9484C36.3785 23.8157 36.7799 23.8481 37.1462 23.9164C37.2508 23.9357 37.3526 23.9579 37.4518 23.9829C37.5505 24.0085 37.6468 24.0369 37.7401 24.0682C37.7865 24.0842 37.8324 24.1006 37.8774 24.1171C38.0576 24.186 38.2249 24.2673 38.3795 24.3612C38.5611 23.0261 38.378 22.1172 37.7515 21.2941C37.0608 20.3879 35.8142 20 34.219 20H29.588C29.2622 20 28.9842 20.273 28.9338 20.6445L27.0049 34.7314C26.9669 35.0101 27.1535 35.2615 27.3974 35.2615H30.2565L30.9743 30.0141L31.7465 24.3794Z" fill="#253B80"/>
</g>
<defs>
<filter id="filter0_dd_3586_6682" x="0" y="0" width="112" height="62" filterUnits="userSpaceOnUse" color-interpolation-filters="sRGB">
<feFlood flood-opacity="0" result="BackgroundImageFix"/>
<feColorMatrix in="SourceAlpha" type="matrix" values="0 0 0 0 0 0 0 0 0 0 0 0 0 0 0 0 0 0 127 0" result="hardAlpha"/>
<feOffset dy="4"/>
<feGaussianBlur stdDeviation="2"/>
<feComposite in2="hardAlpha" operator="out"/>
<feColorMatrix type="matrix" values="0 0 0 0 0 0 0 0 0 0 0 0 0 0 0 0 0 0 0.25 0"/>
<feBlend mode="normal" in2="BackgroundImageFix" result="effect1_dropShadow_3586_6682"/>
<feColorMatrix in="SourceAlpha" type="matrix" values="0 0 0 0 0 0 0 0 0 0 0 0 0 0 0 0 0 0 127 0" result="hardAlpha"/>
<feOffset dx="-4"/>
<feGaussianBlur stdDeviation="2"/>
<feComposite in2="hardAlpha" operator="out"/>
<feColorMatrix type="matrix" values="0 0 0 0 0 0 0 0 0 0 0 0 0 0 0 0 0 0 0.25 0"/>
<feBlend mode="normal" in2="effect1_dropShadow_3586_6682" result="effect2_dropShadow_3586_6682"/>
<feBlend mode="normal" in="SourceGraphic" in2="effect2_dropShadow_3586_6682" result="shape"/>
</filter>
</defs>
</svg>
