<svg width="30" height="31" viewBox="0 0 30 31" fill="none" xmlns="http://www.w3.org/2000/svg">
<path d="M0 15.8301C0 7.54581 6.71573 0.830078 15 0.830078C23.2843 0.830078 30 7.54581 30 15.8301C30 24.1143 23.2843 30.8301 15 30.8301C6.71573 30.8301 0 24.1143 0 15.8301Z" fill="black"/>
<path d="M13.5922 14.2367V13.6528C13.3922 13.6261 13.1888 13.6094 12.9787 13.6094C10.4747 13.6061 8.4375 15.645 8.4375 18.1544C8.4375 19.6928 9.20437 21.0543 10.378 21.8786C9.62115 21.0677 9.15769 19.9765 9.15769 18.7818C9.15769 16.309 11.1382 14.2935 13.5922 14.2367Z" fill="#25F4EE"/>
<path d="M13.7019 20.8573C14.8189 20.8573 15.7325 19.9664 15.7725 18.8585L15.7758 8.95744H17.583C17.5463 8.75388 17.5263 8.54365 17.5263 8.33008H15.059L15.0556 18.2311C15.0156 19.339 14.102 20.23 12.9851 20.23C12.6383 20.23 12.3116 20.1432 12.0215 19.9897C12.3949 20.5136 13.0084 20.8573 13.7019 20.8573Z" fill="#25F4EE"/>
<path d="M20.9603 12.3179V11.7673C20.2702 11.7673 19.63 11.5637 19.0898 11.21C19.57 11.7606 20.2201 12.1611 20.9603 12.3179Z" fill="#25F4EE"/>
<path d="M19.0897 11.21C18.5628 10.606 18.2461 9.81847 18.2461 8.95752H17.5859C17.7559 9.89857 18.3161 10.7061 19.0897 11.21Z" fill="#FE2C55"/>
<path d="M12.9821 16.0755C11.8385 16.0755 10.9082 17.0065 10.9082 18.1511C10.9082 18.9487 11.3617 19.6428 12.0218 19.9898C11.7751 19.6494 11.6284 19.2323 11.6284 18.7785C11.6284 17.6339 12.5586 16.7028 13.7023 16.7028C13.9157 16.7028 14.1224 16.7395 14.3158 16.7996V14.2768C14.1157 14.2501 13.9123 14.2334 13.7023 14.2334C13.6656 14.2334 13.6323 14.2367 13.5956 14.2367V16.1722C13.3989 16.1122 13.1955 16.0755 12.9821 16.0755Z" fill="#FE2C55"/>
<path d="M20.9618 12.3179V14.2367C19.6814 14.2367 18.4944 13.8262 17.5275 13.1321V18.1544C17.5275 20.6605 15.4903 22.7028 12.9829 22.7028C12.016 22.7028 11.1158 22.3957 10.3789 21.8785C11.2091 22.7695 12.3928 23.3301 13.7032 23.3301C16.2071 23.3301 18.2477 21.2912 18.2477 18.7817V13.7595C19.2146 14.4536 20.4016 14.864 21.6819 14.864V12.3947C21.4319 12.3947 21.1918 12.3679 20.9618 12.3179Z" fill="#FE2C55"/>
<path d="M17.5271 18.1544V13.1321C18.4941 13.8263 19.681 14.2367 20.9614 14.2367V12.3179C20.2212 12.1611 19.571 11.7606 19.0909 11.21C18.3173 10.7061 17.7605 9.89857 17.5838 8.95752H15.7766L15.7733 18.8585C15.7333 19.9664 14.8197 20.8574 13.7028 20.8574C13.0092 20.8574 12.3991 20.5137 12.019 19.9931C11.3588 19.6427 10.9053 18.952 10.9053 18.1544C10.9053 17.0098 11.8356 16.0787 12.9792 16.0787C13.1926 16.0787 13.3993 16.1154 13.5927 16.1755V14.24C11.1387 14.2934 9.1582 16.309 9.1582 18.7818C9.1582 19.9764 9.62166 21.0643 10.3785 21.8785C11.1154 22.3958 12.0156 22.7028 12.9826 22.7028C15.4866 22.7028 17.5271 20.6605 17.5271 18.1544Z" fill="white"/>
</svg>
