<svg width="30" height="25" viewBox="0 0 30 25" fill="none" xmlns="http://www.w3.org/2000/svg">
<path d="M30 3.59931C28.875 4.15316 27.75 4.33777 26.4375 4.52239C27.75 3.78392 28.6875 2.67623 29.0625 1.19931C27.9375 1.93777 26.625 2.307 25.125 2.67623C24 1.56854 22.3125 0.830078 20.625 0.830078C16.6875 0.830078 13.6875 4.52239 14.625 8.21469C9.5625 8.03008 5.0625 5.63008 1.875 1.93777C0.1875 4.707 1.125 8.21469 3.75 10.0608C2.8125 10.0608 1.875 9.69162 0.9375 9.32239C0.9375 12.0916 3 14.6762 5.8125 15.4147C4.875 15.5993 3.9375 15.7839 3 15.5993C3.75 17.9993 6 19.8455 8.8125 19.8455C6.5625 21.507 3.1875 22.4301 0 22.0608C2.8125 23.7224 6 24.8301 9.375 24.8301C20.8125 24.8301 27.1875 15.4147 26.8125 6.73777C28.125 5.99931 29.25 4.89162 30 3.59931Z" fill="black"/>
</svg>
