<svg width="27" height="28" viewBox="0 0 27 28" fill="none" xmlns="http://www.w3.org/2000/svg">
<path d="M5.14537 23.298C5.90578 21.5065 7.68115 20.25 9.75 20.25H17.25C19.3188 20.25 21.0942 21.5065 21.8546 23.298M18.5 10.875C18.5 13.6364 16.2614 15.875 13.5 15.875C10.7386 15.875 8.5 13.6364 8.5 10.875C8.5 8.11358 10.7386 5.875 13.5 5.875C16.2614 5.875 18.5 8.11358 18.5 10.875ZM26 14C26 20.9036 20.4036 26.5 13.5 26.5C6.59644 26.5 1 20.9036 1 14C1 7.09644 6.59644 1.5 13.5 1.5C20.4036 1.5 26 7.09644 26 14Z" stroke="white" stroke-width="2" stroke-linecap="round" stroke-linejoin="round"/>
</svg>
