<svg width="30" height="31" viewBox="0 0 30 31" fill="none" xmlns="http://www.w3.org/2000/svg">
<path d="M0 15.8301C0 24.1143 6.71573 30.8301 15 30.8301C23.2843 30.8301 30 24.1143 30 15.8301C30 7.54581 23.2843 0.830078 15 0.830078C6.71573 0.830078 0 7.54581 0 15.8301Z" fill="black"/>
<path d="M16.427 14.6816L22.0111 8.33008H20.6879L15.8392 13.845L11.9666 8.33008H7.5L13.3562 16.6696L7.5 23.3301H8.82333L13.9436 17.5062L18.0334 23.3301H22.5L16.4267 14.6816H16.427ZM14.6146 16.7431L14.0212 15.9126L9.30014 9.30484H11.3327L15.1427 14.6375L15.736 15.468L20.6885 22.3996H18.656L14.6146 16.7434V16.7431Z" fill="white"/>
</svg>
