<svg width="30" height="22" viewBox="0 0 30 22" fill="none" xmlns="http://www.w3.org/2000/svg">
<path d="M29.25 3.51758C28.875 2.20508 27.9375 1.26758 26.625 0.892578C24.375 0.330078 14.8125 0.330078 14.8125 0.330078C14.8125 0.330078 5.43751 0.330078 3.00001 0.892578C1.68751 1.26758 0.749994 2.20508 0.374994 3.51758C-5.72763e-06 5.95508 0 10.8301 0 10.8301C0 10.8301 5.69969e-06 15.7051 0.562506 18.1426C0.937506 19.4551 1.87499 20.3926 3.18749 20.7676C5.43749 21.3301 15 21.3301 15 21.3301C15 21.3301 24.375 21.3301 26.8125 20.7676C28.125 20.3926 29.0625 19.4551 29.4375 18.1426C30 15.7051 30 10.8301 30 10.8301C30 10.8301 30 5.95508 29.25 3.51758ZM12 15.3301V6.33008L19.875 10.8301L12 15.3301Z" fill="black"/>
</svg>
